<?xml version="1.0" standalone="no"?>
<!DOCTYPE svg PUBLIC "-//W3C//DTD SVG 20010904//EN"
 "http://www.w3.org/TR/2001/REC-SVG-20010904/DTD/svg10.dtd">
<svg version="1.0" xmlns="http://www.w3.org/2000/svg"
 width="500.000000pt" height="500.000000pt" viewBox="0 0 500.000000 500.000000"
 preserveAspectRatio="xMidYMid meet">

<g transform="translate(0.000000,500.000000) scale(0.100000,-0.100000)"
fill="#000000" stroke="none">
<path d="M2615 3978 c-3 -7 -13 -51 -24 -98 -10 -47 -41 -182 -69 -300 -28
-118 -90 -381 -137 -585 -47 -203 -99 -426 -115 -495 -17 -69 -73 -309 -125
-535 -99 -428 -187 -801 -211 -895 -7 -30 -12 -56 -10 -57 2 -2 112 -5 244 -6
l240 -2 36 150 c20 83 79 335 131 560 52 226 113 487 136 580 22 94 67 285 99
425 32 140 77 334 100 430 23 96 52 222 65 280 13 58 47 201 74 319 28 118 51
221 51 228 0 19 -478 19 -485 1z"/>
<path d="M970 2734 c-118 -135 -230 -262 -247 -282 -18 -20 -33 -40 -33 -43 0
-3 63 -77 141 -165 77 -87 189 -214 247 -281 l107 -122 319 0 319 -1 -20 23
c-203 226 -473 539 -473 547 0 7 15 28 34 48 18 21 85 96 147 167 62 72 116
132 119 135 3 3 47 53 98 113 l93 107 -318 0 -318 -1 -215 -245z"/>
<path d="M3272 2873 c51 -60 95 -110 99 -113 3 -3 74 -83 157 -178 l153 -174
-73 -81 c-106 -118 -123 -137 -258 -292 -68 -77 -134 -151 -148 -165 l-24 -25
317 -3 317 -2 33 37 c41 47 161 184 330 377 72 81 130 151 130 156 0 5 -102
125 -227 267 -125 142 -235 268 -246 281 -19 22 -20 22 -336 22 l-317 0 93
-107z"/>
</g>
</svg>
