<?xml version="1.0" encoding="UTF-8"?>
<svg version="1.1" xmlns="http://www.w3.org/2000/svg" width="336" height="224">
<path d="M0 0 C7.92 0 15.84 0 24 0 C23.33622932 4.64639476 22.6882496 8.51375152 21.3996582 12.92260742 C21.06948196 14.06112656 20.73930573 15.19964569 20.39912415 16.37266541 C20.03667099 17.60449051 19.67421783 18.83631561 19.30078125 20.10546875 C18.91376807 21.43371725 18.52719899 22.76209522 18.14103699 24.09059143 C17.30818772 26.95251803 16.47239684 29.81356259 15.63427734 32.6739502 C14.2932015 37.25100839 12.95853611 41.82991993 11.625 46.40917969 C10.21528774 51.24907081 8.80520101 56.08885074 7.39297485 60.92800903 C3.97948947 72.62590575 0.58356682 84.32879798 -2.80078125 96.03515625 C-3.15700813 97.26728316 -3.15700813 97.26728316 -3.52043152 98.52430153 C-4.47358704 101.82126744 -5.42666008 105.11825718 -6.37960434 108.41528416 C-12.74837817 130.4493541 -19.11883679 152.48311648 -25.54638672 174.50012207 C-26.05042546 176.22707317 -26.55386023 177.95420068 -27.05664062 179.68151855 C-27.71941474 181.95752228 -28.38463222 184.23279467 -29.05078125 186.5078125 C-29.40825439 187.73129395 -29.76572754 188.95477539 -30.1340332 190.21533203 C-31 193 -31 193 -32 195 C-39.92 195 -47.84 195 -56 195 C-53.74995911 184.87481597 -53.74995911 184.87481597 -52.37792969 180.12573242 C-51.9128022 178.50825104 -51.9128022 178.50825104 -51.4382782 176.85809326 C-51.10286514 175.70222717 -50.76745209 174.54636108 -50.421875 173.35546875 C-50.0628157 172.10993225 -49.70375641 170.86439575 -49.33381653 169.58111572 C-48.34889812 166.1649224 -47.36053829 162.7497335 -46.37150955 159.33472824 C-45.3186049 155.6970905 -44.26877025 152.05856674 -43.21850586 148.42016602 C-41.18862255 141.39010647 -39.15561945 134.36095282 -37.12147999 127.33212376 C-35.46080983 121.59350682 -33.80152622 115.85449047 -32.14306641 110.11523438 C-14.21180571 48.0641662 -14.21180571 48.0641662 -5.6875 18.9375 C-5.44202423 18.09839081 -5.19654846 17.25928162 -4.94363403 16.39474487 C-1.1886982 3.56609459 -1.1886982 3.56609459 0 0 Z " fill="#05EC6D" transform="translate(184,14)"/>
<path d="M0 0 C0 7.92 0 15.84 0 24 C-12.18699281 30.45806456 -24.42362398 36.81458681 -36.6875 43.125 C-37.42263824 43.50364197 -38.15777649 43.88228394 -38.91519165 44.2723999 C-43.93810836 46.85880891 -48.96675905 49.43374442 -54 52 C-54.75251038 52.38458374 -55.50502075 52.76916748 -56.28033447 53.16540527 C-58.50363373 54.29969693 -60.72983169 55.42807696 -62.95703125 56.5546875 C-63.63658371 56.90201935 -64.31613617 57.2493512 -65.01628113 57.60720825 C-69.7703936 60 -69.7703936 60 -72 60 C-72 60.66 -72 61.32 -72 62 C-71.24074219 62.2165625 -70.48148438 62.433125 -69.69921875 62.65625 C-64.5276202 64.53484546 -59.7170577 67.01675314 -54.8125 69.5 C-53.74531738 70.03681396 -52.67813477 70.57362793 -51.57861328 71.12670898 C-44.38444433 74.75816906 -37.23932574 78.47491303 -30.12475586 82.25952148 C-22.79762205 86.14385133 -15.37884297 89.8390791 -7.94287109 93.51000977 C-7.05164551 93.95143311 -6.16041992 94.39285645 -5.2421875 94.84765625 C-4.4466748 95.23961182 -3.65116211 95.63156738 -2.83154297 96.03540039 C-1 97 -1 97 0 98 C0.08726223 99.78071246 0.10699041 101.5648314 0.09765625 103.34765625 C0.09282227 104.96704102 0.09282227 104.96704102 0.08789062 106.61914062 C0.07532227 108.32360352 0.07532227 108.32360352 0.0625 110.0625 C0.05798828 111.20267578 0.05347656 112.34285156 0.04882812 113.51757812 C0.03699747 116.34510351 0.0205141 119.1725264 0 122 C-5.1785628 121.38841526 -9.42386875 118.98608819 -14.0078125 116.66015625 C-14.88790985 116.21917099 -15.7680072 115.77818573 -16.67477417 115.32383728 C-18.5438686 114.38592946 -20.41152188 113.44514499 -22.27783203 112.50170898 C-25.06376373 111.09345419 -27.85365043 109.69333817 -30.64453125 108.29492188 C-40.19672752 103.49782155 -49.69308018 98.60708887 -59.13951111 93.60514832 C-67.09310636 89.40243112 -75.13191458 85.37776363 -83.1875 81.375 C-84.6426748 80.64993358 -86.09775309 79.92467343 -87.55273438 79.19921875 C-91.0338911 77.4635824 -94.51695082 75.73185542 -98 74 C-98 65.42 -98 56.84 -98 48 C-94.32230469 46.16695312 -90.64460938 44.33390625 -86.85546875 42.4453125 C-83.86360627 40.95261242 -80.87195427 39.45949222 -77.88043976 37.96609497 C-74.75570757 36.40633398 -71.6306378 34.84725957 -68.50463867 33.29003906 C-54.56909236 26.34735167 -40.68642037 19.3248593 -26.93496704 12.02252197 C-22.31881535 9.58314371 -17.66419205 7.22081424 -13 4.875 C-12.0615625 4.39546875 -11.123125 3.9159375 -10.15625 3.421875 C-8.81046875 2.74511719 -8.81046875 2.74511719 -7.4375 2.0546875 C-6.65246094 1.65749512 -5.86742188 1.26030273 -5.05859375 0.85107422 C-3 0 -3 0 0 0 Z " fill="#05EC6D" transform="translate(114,61)"/>
<path d="M0 0 C6.75080896 2.25026965 6.75080896 2.25026965 10.05151367 3.90429688 C10.79056442 4.27228394 11.52961517 4.640271 12.2910614 5.01940918 C13.07544083 5.41519165 13.85982025 5.81097412 14.66796875 6.21875 C15.50225906 6.63612427 16.33654938 7.05349854 17.19612122 7.48352051 C18.96462448 8.36927976 20.73215752 9.25697848 22.4987793 10.14648438 C25.1317329 11.47192656 27.76769895 12.79119993 30.40429688 14.109375 C39.68640281 18.76037299 48.910153 23.50782053 58.08532715 28.36618042 C66.05702533 32.57847213 74.11357559 36.61312385 82.1875 40.625 C83.6426748 41.35006642 85.09775309 42.07532657 86.55273438 42.80078125 C90.0338911 44.5364176 93.51695082 46.26814458 97 48 C97 56.58 97 65.16 97 74 C88.1875 78.375 88.1875 78.375 85.54760742 79.68115234 C80.63485083 82.12950749 75.76341253 84.64659963 70.91485596 87.21905518 C58.29139331 93.9132293 45.53047741 100.32853795 32.75073242 106.71728516 C29.52650598 108.32934654 26.30511601 109.94699676 23.08431149 111.56588173 C20.58161647 112.82276263 18.07713302 114.07604548 15.57211494 115.32828903 C13.80596296 116.21223874 12.04162943 117.09981877 10.27732849 117.98745728 C9.21764359 118.51576141 8.15795868 119.04406555 7.06616211 119.58837891 C6.13307724 120.05563385 5.19999237 120.52288879 4.2386322 121.00430298 C2 122 2 122 0 122 C0 113.75 0 105.5 0 97 C2.32019165 95.84383179 2.32019165 95.84383179 4.68725586 94.66430664 C9.87282538 92.07967653 15.05741059 89.49307817 20.2413702 86.90522099 C23.37578548 85.34059175 26.51055718 83.77668674 29.64624023 82.21459961 C43.5171864 75.30393427 57.36056131 68.36025112 71 61 C70.49364014 60.74943848 69.98728027 60.49887695 69.46557617 60.24072266 C60.33989898 55.71839021 51.23904477 51.16402948 42.25 46.375 C28.31627131 38.96128586 14.13147011 32.02650519 0 25 C0 16.75 0 8.5 0 0 Z " fill="#05EC6D" transform="translate(223,61)"/>
</svg>
